<svg height="512pt" viewBox="-34 0 512 512" width="512pt" xmlns="http://www.w3.org/2000/svg"><path d="m157.066406 435.171875c-2.582031 2.503906-4.835937 5.296875-6.761718 8.296875-5.628907-8.734375-14.125-15.574219-24.464844-19.058594l-12.789063-4.304687c-2.039062-.679688-3.910156-1.871094-5.414062-3.445313-2.40625-2.515625-3.734375-5.828125-3.734375-9.332031v-13.726563l4.300781-2.625c7.648437-4.660156 12.402344-13.125 12.402344-22.09375v-22.660156c0-.023437 0-.042968 0-.066406v-19.773438c0-15.804687-12.84375-28.664062-28.632813-28.664062h-26.160156c-15.785156 0-28.628906 12.859375-28.628906 28.664062v17.042969.027344 25.433594c0 8.964843 4.75 17.429687 12.398437 22.09375l4.304688 2.621093v13.726563c0 3.726563-1.566407 7.332031-4.28125 9.882813-.007813.007812-.015625.015624-.019531.019531-1.394532 1.296875-3.03125 2.265625-4.863282 2.882812l-12.773437 4.300781c-19.109375 6.433594-31.949219 24.316407-31.949219 44.5v35.585938c0 4.140625 3.359375 7.5 7.5 7.5s7.5-3.359375 7.5-7.5v-35.585938c0-13.738281 8.734375-25.910156 21.738281-30.285156l12.773438-4.304687c2.371093-.796875 4.59375-1.886719 6.644531-3.246094 3.996094 1.199219 8.0625 2.058594 12.179688 2.5625l-13.132813 46.421875c-.699219 2.472656-.082031 5.136719 1.632813 7.050781l15.648437 17.445313c1.378906 1.535156 3.328125 2.4375 5.394531 2.488281.0625 0 .125.003906.1875.003906 1.996094 0 3.914063-.796875 5.324219-2.21875l17.304687-17.445312c1.957032-1.976563 2.664063-4.867188 1.832032-7.523438l-14.535156-46.453125c4.292968-.628906 8.519531-1.636718 12.664062-3.015625 2.328125 1.691407 4.90625 3.023438 7.625 3.933594l12.769531 4.300781c13.003907 4.378906 21.738281 16.550782 21.738281 30.285156v35.585938c0 4.140625 3.359376 7.5 7.5 7.5 4.144532 0 7.5-3.359375 7.5-7.5v-35.585938c0-8.609374 3.542969-16.984374 9.722657-22.972656 2.972656-2.882812 3.046875-7.632812.164062-10.605468-2.886719-2.972657-7.636719-3.046876-10.609375-.164063zm-78.472656-15.984375c-4.007812.082031-7.980469-.25-11.886719-.96875 1.417969-3.429688 2.179688-7.128906 2.179688-10.890625v-4.921875c3.207031 1.351562 6.605469 2.035156 10.007812 2.035156 3.402344 0 6.800781-.683594 10.007813-2.039062v4.925781c0 3.570313.660156 7.046875 1.910156 10.289063-4.007812.945312-8.089844 1.480468-12.21875 1.570312zm-12.78125-106.46875h26.160156c7.515625 0 13.632813 6.128906 13.632813 13.664062v9.449219l-35.582031-11.453125c-1.910157-.613281-3.988282-.4375-5.769532.492188l-12.074218 6.304687v-4.792969c0-7.535156 6.117187-13.664062 13.632812-13.664062zm-13.632812 35.378906 16.234374-8.476562 37.191407 11.96875v17.292968c0 3.769532-1.996094 7.328126-5.210938 9.289063l-15.871093 9.671875c-3.472657 2.121094-7.789063 2.121094-11.261719 0l-15.871094-9.671875c-3.214844-1.960937-5.210937-5.519531-5.210937-9.289063zm26.160156 140.523438-7.578125-8.449219 7.667969-27.097656 8.433593 26.957031zm0 0"/><path d="m285.960938 171.191406v35.585938c0 4.144531 3.355468 7.5 7.5 7.5 4.140624 0 7.5-3.355469 7.5-7.5v-35.585938c0-3.199218-.011719-3.574218-.425782-6.296875-.617187-4.09375-4.441406-6.914062-8.535156-6.292969-4.097656.617188-6.914062 4.4375-6.296875 8.535157.257813 1.6875.257813 1.6875.257813 4.054687zm0 0"/><path d="m150.671875 214.277344c4.140625 0 7.5-3.355469 7.5-7.5v-35.585938c0-13.738281 8.734375-25.910156 21.734375-30.285156l12.773438-4.300781c2.375-.800781 4.59375-1.886719 6.644531-3.246094 3.996093 1.199219 8.0625 2.058594 12.183593 2.5625l-13.132812 46.421875c-.699219 2.472656-.085938 5.132812 1.632812 7.046875l15.644532 17.445313c1.378906 1.539062 3.332031 2.4375 5.394531 2.492187h.1875c2 0 3.917969-.796875 5.328125-2.21875l17.300781-17.445313c1.957031-1.972656 2.664063-4.867187 1.832031-7.519531l-14.53125-46.453125c4.285157-.628906 8.511719-1.636718 12.652344-3.015625 2.324219 1.683594 4.902344 3.015625 7.636719 3.929688l12.769531 4.296875c3.191406 1.078125 6.175782 2.640625 8.871094 4.648437 1.347656 1 2.917969 1.484375 4.476562 1.484375 2.285157 0 4.546876-1.042968 6.019532-3.019531 2.472656-3.320313 1.789062-8.019531-1.535156-10.496094-3.960938-2.953125-8.351563-5.25-13.042969-6.832031l-12.789063-4.304688c-2.058594-.691406-3.921875-1.871093-5.414062-3.4375-2.410156-2.515624-3.734375-5.832031-3.734375-9.34375v-13.722656l4.300781-2.621094c7.648438-4.664062 12.398438-13.128906 12.398438-22.09375v-22.660156c0-.023437 0-.042968 0-.066406v-19.773438c0-15.804687-12.84375-28.664062-28.632813-28.664062h-26.15625c-15.789063 0-28.632813 12.859375-28.632813 28.664062v17.042969.027344 25.429687c0 8.964844 4.75 17.433594 12.398438 22.09375l4.308594 2.625v13.722657c0 3.742187-1.570313 7.355469-4.296875 9.898437-1.398438 1.296875-3.035157 2.269532-4.871094 2.886719l-12.769531 4.300781c-19.109375 6.433594-31.949219 24.320313-31.949219 44.503906v35.585938c0 4.140625 3.355469 7.496094 7.5 7.496094zm61.386719-109.589844c3.203125 1.351562 6.601562 2.035156 10.003906 2.035156s6.804688-.683594 10.007812-2.039062v4.921875c0 3.574219.664063 7.050781 1.910157 10.292969-4.007813.945312-8.089844 1.480468-12.21875 1.570312-4.007813.082031-7.976563-.253906-11.882813-.972656 1.417969-3.425782 2.179688-7.125 2.179688-10.890625zm9.453125 86.214844-7.578125-8.449219 7.664062-27.101563 8.433594 26.960938zm-12.527344-175.902344h26.15625c7.515625 0 13.632813 6.128906 13.632813 13.664062v9.449219l-35.582032-11.453125c-1.910156-.613281-3.988281-.4375-5.765625.492188l-12.074219 6.300781v-4.789063c0-7.535156 6.113282-13.664062 13.632813-13.664062zm-13.632813 35.375 16.234376-8.476562 37.1875 11.96875v17.296874c0 3.769532-1.996094 7.328126-5.207032 9.285157l-15.871094 9.675781c-3.476562 2.117188-7.792968 2.117188-11.265624 0l-15.871094-9.675781c-3.210938-1.957031-5.207032-5.515625-5.207032-9.285157zm0 0"/><path d="m411.410156 424.410156-12.789062-4.304687c-2.050782-.683594-3.914063-1.867188-5.410156-3.445313-2.410157-2.515625-3.738282-5.828125-3.738282-9.332031v-13.726563l4.300782-2.621093c7.648437-4.664063 12.402343-13.128907 12.402343-22.09375v-22.664063c0-.019531 0-.042968 0-.0625v-19.773437c0-15.808594-12.847656-28.664063-28.632812-28.664063h-26.160157c-15.789062 0-28.632812 12.855469-28.632812 28.664063v17.039062.027344 25.433594c0 8.964843 4.753906 17.429687 12.402344 22.09375l4.304687 2.625v13.722656c0 3.71875-1.554687 7.308594-4.253906 9.855469-.019531.019531-.039063.039062-.0625.058594-1.390625 1.289062-3.019531 2.253906-4.847656 2.871093l-12.773438 4.300781c-10.328125 3.476563-18.820312 10.304688-24.449219 19.027344-5.625-8.722656-14.117187-15.550781-24.441406-19.027344l-12.796875-4.304687c-2.042969-.683594-3.910156-1.871094-5.40625-3.441406-2.414062-2.523438-3.742187-5.84375-3.742187-9.339844v-13.722656l4.304687-2.625c7.648438-4.664063 12.402344-13.128907 12.402344-22.09375v-22.664063c0-.019531 0-.042968 0-.0625v-19.773437c0-15.808594-12.84375-28.664063-28.632813-28.664063h-26.160156c-15.785156 0-28.628906 12.855469-28.628906 28.664063v17.039062.027344 25.433594c0 8.964843 4.75 17.429687 12.398438 22.09375l4.3125 2.628906v13.71875c0 3.738281-1.574219 7.347656-4.308594 9.898437-1.398438 1.300782-3.035156 2.273438-4.859375 2.886719-3.921875 1.324219-6.035157 5.578125-4.710938 9.503907 1.054688 3.128906 3.972657 5.105468 7.105469 5.105468.792969 0 1.601562-.125 2.394531-.394531 2.371094-.796875 4.589844-1.886719 6.640625-3.246094 3.996094 1.199219 8.0625 2.058594 12.179688 2.5625l-13.132813 46.421875c-.699219 2.472656-.082031 5.132813 1.632813 7.046875l15.648437 17.445313c1.378907 1.539062 3.332031 2.4375 5.394531 2.492187h.1875c2 0 3.917969-.796875 5.328126-2.21875l17.300781-17.445312c1.957031-1.972657 2.664062-4.867188 1.832031-7.519531l-14.53125-46.457032c4.289062-.625 8.515625-1.632812 12.65625-3.011718 2.328125 1.6875 4.90625 3.023437 7.625 3.929687l12.78125 4.300781c12.996094 4.378906 21.726562 16.550782 21.726562 30.289063v35.582031c0 4.140625 3.359376 7.5 7.5 7.5 4.144532 0 7.5-3.359375 7.5-7.5v-35.585938c0-13.738281 8.738282-25.910156 21.738282-30.285156l12.773437-4.304687c2.375-.796875 4.59375-1.886719 6.644531-3.246094 3.996094 1.199219 8.0625 2.058594 12.179688 2.5625l-13.132812 46.421875c-.699219 2.472656-.082032 5.136719 1.632812 7.050781l15.648438 17.445313c1.378906 1.535156 3.332031 2.4375 5.394531 2.488281.0625 0 .125.003906.1875.003906 2 0 3.917969-.796875 5.328125-2.21875l17.300781-17.445312c1.957031-1.976563 2.664063-4.867188 1.832031-7.523438l-14.53125-46.453125c4.289063-.628906 8.515625-1.636718 12.65625-3.015625 2.324219 1.6875 4.90625 3.019531 7.632813 3.933594l12.769531 4.300781c13.003906 4.378906 21.738281 16.550782 21.738281 30.285156v35.585938c0 4.140625 3.359375 7.5 7.5 7.5s7.5-3.359375 7.5-7.5v-35.585938c-.003906-20.179687-12.839843-38.0625-31.953125-44.503906zm-190.03125-5.222656c-4.007812.082031-7.976562-.25-11.882812-.96875 1.417968-3.429688 2.179687-7.128906 2.179687-10.890625v-4.921875c3.203125 1.355469 6.601563 2.035156 10 2.035156 3.402344 0 6.800781-.683594 10.007813-2.035156v4.921875c0 3.566406.660156 7.042969 1.914062 10.289063-4.007812.945312-8.089844 1.480468-12.21875 1.570312zm-12.78125-106.46875h26.160156c7.515626 0 13.632813 6.128906 13.632813 13.664062v9.449219l-35.582031-11.453125c-1.910156-.613281-3.988282-.4375-5.769532.492188l-12.074218 6.304687v-4.792969c0-7.535156 6.117187-13.664062 13.632812-13.664062zm-13.632812 35.378906 16.234375-8.476562 37.191406 11.96875v17.292968c0 3.769532-1.996094 7.328126-5.210937 9.289063l-15.871094 9.671875c-3.472656 2.121094-7.789063 2.121094-11.261719 0l-15.871094-9.671875c-3.214843-1.960937-5.210937-5.519531-5.210937-9.289063zm26.160156 140.523438-7.578125-8.449219 7.667969-27.097656 8.433594 26.957031zm143.035156-69.433594c-4.003906.082031-7.976562-.25-11.882812-.96875 1.417968-3.429688 2.179687-7.128906 2.179687-10.894531v-4.917969c3.203125 1.351562 6.605469 2.035156 10.003907 2.035156 3.402343 0 6.804687-.683594 10.011718-2.039062v4.921875c0 3.570312.660156 7.050781 1.910156 10.289062-4.003906.949219-8.09375 1.484375-12.222656 1.574219zm-12.777344-106.46875h26.160157c7.515625 0 13.632812 6.128906 13.632812 13.664062v9.449219l-35.582031-11.453125c-1.910156-.613281-3.988281-.4375-5.769531.492188l-12.074219 6.304687v-4.792969c0-7.535156 6.117188-13.664062 13.632812-13.664062zm-13.632812 35.378906 16.234375-8.476562 37.191406 11.96875v17.292968c0 3.769532-1.996093 7.328126-5.210937 9.289063l-15.871094 9.671875c-3.472656 2.121094-7.789062 2.121094-11.265625 0l-15.867187-9.671875c-3.214844-1.960937-5.210938-5.519531-5.210938-9.289063zm26.160156 140.523438-7.578125-8.449219 7.664063-27.097656 8.4375 26.957031zm0 0"/><path d="m78.890625 283.289062c4.140625 0 7.5-3.359374 7.5-7.5 0-6.894531 5.609375-12.503906 12.503906-12.503906h115.28125v12.503906c0 4.140626 3.359375 7.5 7.5 7.5s7.5-3.359374 7.5-7.5v-12.503906h115.285157c6.894531 0 12.503906 5.609375 12.503906 12.503906 0 4.140626 3.355468 7.5 7.5 7.5 4.140625 0 7.5-3.359374 7.5-7.5 0-15.167968-12.339844-27.503906-27.503906-27.503906h-115.285157v-13.503906c0-4.140625-3.359375-7.5-7.5-7.5s-7.5 3.359375-7.5 7.5v13.503906h-115.28125c-15.164062 0-27.503906 12.335938-27.503906 27.503906 0 4.140626 3.359375 7.5 7.5 7.5zm0 0"/></svg>