<svg height="448pt" viewBox="0 0 448 448.008" width="448pt" xmlns="http://www.w3.org/2000/svg"><path d="m.00390625 88v272c0 13.253906 10.74609375 24 23.99999975 24v-320c-13.253906 0-23.99999975 10.746094-23.99999975 24zm0 0"/><path d="m248.003906 400h-3.128906l3.128906 1.871094zm0 0"/><path d="m248.003906 341.550781c-39.476562 8.105469-80.378906-4.179687-108.855468-32.695312v-.039063c-24.898438-24.480468-37.78125-58.664062-35.234376-93.488281 2.542969-34.824219 20.257813-66.773437 48.449219-87.375l-27.992187-31.953125h-36.367188c-17.671875 0-32-14.328125-32-32h-16v320h208zm-192-213.550781h48v16h-48zm0 32h40v16h-40zm0 136h40v16h-40zm56 48h-56v-16h56zm0 0"/><path d="m328.003906 224c.070313-24.832031-8.8125-48.855469-25.015625-67.671875l-67.671875 67.671875 67.671875 67.671875c16.203125-18.816406 25.085938-42.839844 25.015625-67.671875zm0 0"/><path d="m88.003906 80h40c2.304688.003906 4.5 1 6.015625 2.734375l34.183594 39.066406-7.960937-31.863281c-.59375-2.390625-.054688-4.921875 1.460937-6.863281 1.515625-1.9375 3.839844-3.074219 6.300781-3.074219h48c8.835938 0 16-7.164062 16-16v-48c0-8.835938-7.164062-16-16-16h-128c-8.835937 0-16 7.164062-16 16v48c0 8.835938 7.164063 16 16 16zm32-64h96v16h-96zm-32 0h16v16h-16zm0 32h128v16h-128zm0 0"/><path d="m369.402344 360.121094c-2.328125-.414063-4.722656.222656-6.539063 1.746094-1.8125 1.519531-2.859375 3.765624-2.859375 6.132812 0 4.417969-3.582031 8-8 8-4.417968 0-8-3.582031-8-8s-3.582031-8-8-8c-4.417968 0-8 3.582031-8 8s-3.582031 8-8 8c-4.417968 0-8-3.582031-8-8s-3.582031-8-8-8c-4.417968 0-8 3.582031-8 8s-3.582031 8-8 8c-4.417968 0-8-3.582031-8-8v-64c0-4.417969-3.582031-8-8-8-4.417968 0-8 3.582031-8 8v112c0 2.882812-1.550781 5.542969-4.0625 6.960938-2.507812 1.421874-5.585937 1.378906-8.058594-.105469l-33.351562-20c-1.789062-1.085938-4.011719-1.171875-5.878906-.222657l-1.273438.625c-1.917968.964844-3.1875 2.867188-3.351562 5.007813-.164063 2.144531.804687 4.214844 2.550781 5.460937l48 34.28125h117.425781v-79.152343c.152344-4.109375-2.605468-7.757813-6.601562-8.734375zm0 0"/><path d="m187.707031 159.089844c-3.273437 1.707031-7.289062.953125-9.71875-1.824219l-15.082031-17.265625c-24.878906 17.660156-40.515625 45.558594-42.597656 76h100.382812l70.984375-70.992188c-29.171875-25.074218-69.84375-31.898437-105.601562-17.71875l5.699219 22.773438c.890624 3.585938-.789063 7.316406-4.066407 9.027344zm0 0"/><path d="m145.019531 291.671875 59.671875-59.671875h-84.382812c1.632812 22.023438 10.292968 42.941406 24.710937 59.671875zm0 0"/><path d="m248.003906 325.183594v-21.183594c.035156-12.054688 9.023438-22.203125 20.984375-23.695312l-44.984375-44.992188-67.671875 67.679688c25.253907 21.625 59.324219 29.871093 91.671875 22.191406zm0 0"/><path d="m216.003906 96h-37.75l3.902344 15.632812c43.972656-16.511718 93.539062-5.75 126.703125 27.511719 46.792969 46.851563 46.792969 122.75 0 169.597657v.042968c-4.027344 3.980469-8.320313 7.679688-12.855469 11.070313v25.511719c8.28125-2.71875 17.382813-.914063 24 4.761718 9.101563-8.171875 22.898438-8.171875 32 0 .152344-.144531.3125-.28125.472656-.410156 5.394532-4.585938 12.539063-6.5625 19.527344-5.398438 11.726563 2.261719 20.148438 12.59375 20 24.535157v15.144531h16v-320h-160c0 17.671875-14.328125 32-32 32zm176 232h-56v-16h56zm0-32h-40v-16h40zm0-120h-40v-16h40zm-16-96h16v16h-16zm-32 0h16v16h-16zm-8 48h56v16h-56zm-24-48h16v16h-16zm0 0"/><path d="m424.003906 64v320c13.253906 0 24-10.746094 24-24v-272c0-13.253906-10.746094-24-24-24zm0 0"/></svg>